# xmcd
#
# Track frame offsets:
#	200
#	19427
#	38285
#	62785
#	101460
#	140610
#	148460
#	174485
#	190410
#	227760
#
# Disc length: 3457
#
# Revision: 1
# Processed by: cddbd v1.5.1PL0 Copyright (c) Steve Scherf et al.
# Submitted via: dBpowerAMP V4.0
# Normalized: r0:DSETVAR2,TDELIM( - )
#
DISCID=8e0d7f0a
DTITLE=Various Artist - The Guy Smiley Blues Exchange
DYEAR=1998
DGENRE=Blues
TTITLE0=I - The Unexplained
TTITLE1=II - Asleep @ the Foot, IIa - Alterations, IIb - Pins and Needles
TTITLE2=III - Consider This
TTITLE3=IV - Dreams
TTITLE4=V - Diez Cuatro, Buen Amigo
TTITLE5=VI - Freaky Love Monster
TTITLE6=VII - Mechanically Separated Chicken
TTITLE7=VIII - Oasis
TTITLE8=IX - (Tito Puente Ain't Seen No) Snufalufagus
TTITLE9=X - Get Down Tonight
EXTD=
EXTT0=
EXTT1=
EXTT2=
EXTT3=
EXTT4=
EXTT5=
EXTT6=
EXTT7=
EXTT8=
EXTT9=
PLAYORDER=
